<svg xmlns="http://www.w3.org/2000/svg" xmlns:xlink="http://www.w3.org/1999/xlink" width="35" height="27.222" viewBox="0 0 35 27.222">
  <defs>
    <clipPath id="clip-path">
      <rect id="사각형_11" data-name="사각형 11" width="35" height="27.222" transform="translate(-178.433 -138.781)" fill="#c7c7c7" stroke="#909090" stroke-width="1"/>
    </clipPath>
  </defs>
  <g id="Sound" transform="translate(178.433 138.781)" clip-path="url(#clip-path)">
    <path id="패스_3" data-name="패스 3" d="M100.452-118.372a1.88,1.88,0,0,0-2.722,0,1.88,1.88,0,0,0,0,2.722,11.623,11.623,0,0,1,3.5,8.361,11.623,11.623,0,0,1-3.5,8.361,1.88,1.88,0,0,0,0,2.722,2.1,2.1,0,0,0,1.361.583,1.765,1.765,0,0,0,1.361-.583,15.59,15.59,0,0,0,4.667-11.083A15.59,15.59,0,0,0,100.452-118.372Z" transform="translate(-248.552 -17.881)" fill="#c7c7c7"/>
    <path id="패스_4" data-name="패스 4" d="M-156.461-131.667a1.658,1.658,0,0,0,0,2.528h0a6.32,6.32,0,0,1,1.944,4.667,7.271,7.271,0,0,1-1.944,4.861,1.658,1.658,0,0,0,0,2.528h0a2.651,2.651,0,0,0,1.944.389c.194,0,.389-.194.583-.389a9.768,9.768,0,0,0,2.917-7.389v-.972a9.062,9.062,0,0,0-2.917-6.222,1.658,1.658,0,0,0-2.528,0Zm-14.583,1.361h-6.028a1.387,1.387,0,0,0-1.361,1.556V-120a1.329,1.329,0,0,0,1.361,1.361h6.028l7.972,7.583a1.364,1.364,0,0,0,2.139-1.167v-24.306a1.318,1.318,0,0,0-2.139-1.167Z" transform="translate(0 -0.697)" fill="#c7c7c7"/>
  </g>
</svg>
